<svg xmlns="http://www.w3.org/2000/svg" xmlns:xlink="http://www.w3.org/1999/xlink" version="1.1" x="0px" y="0px" viewBox="0 0 100 125" style="enable-background:new 0 0 100 100;" xml:space="preserve"><style type="text/css">
	.st0{fill:#020202;}
</style><g><path d="M55.3,41.6L72,32c0.4-0.2,0.7,0,0.7,0.4V52v19.6c0,0.4-0.3,0.6-0.7,0.4l-16.7-9.6l-16.7-9.6c-0.6-0.3-0.6-1.1,0-1.5   L55.3,41.6z"/><path d="M24.2,30.4v41.9c0,3.7,3,6.6,6.6,6.6h1.8c3.7,0,6.6-3,6.6-6.6V60.2c0-0.1,0.1-0.1,0.1-0.1l31.1,17.9c1,0.6,2,0.8,3,0.8   c1,0,2-0.3,2.9-0.8c2-1.1,3.2-3.4,3.2-5.7l0-42.6c0-2.2-1.2-4.2-3.1-5.3c-1.9-1.1-4.4-0.9-6.3,0.2L39.4,42.5c-0.1,0-0.1,0-0.1-0.1   V30.4c0-3.7-3-6.6-6.6-6.6h-1.8C27.2,23.8,24.2,26.7,24.2,30.4z M29,31.1c0-0.9,0.7-1.6,1.6-1.6h1.8c0.9,0,1.6,0.7,1.6,1.6v20.1   c0,0.3,0.3,0.5,0.6,0.4l38-22c0.2-0.1,0.4-0.2,0.5-0.2c0.2,0,0.4,0.1,0.5,0.2c0.2,0.1,0.5,0.4,0.5,0.9v42.9c0,0.5-0.3,0.8-0.5,0.9   c-0.2,0.1-0.6,0.3-1.1,0l-38.1-22c-0.3-0.2-0.6,0-0.6,0.3v20.2c0,0.9-0.7,1.6-1.6,1.6h-1.8c-0.9,0-1.6-0.7-1.6-1.6V31.1z"/><path d="M31,31.7H32c0.4,0,0.8,0.4,0.8,0.8v39.1c0,0.4-0.4,0.8-0.8,0.8H31c-0.4,0-0.8-0.4-0.8-0.8V32.5C30.2,32,30.6,31.7,31,31.7z   "/></g><text x="0" y="115" fill="#000000" font-size="5px" font-weight="bold" font-family="'Helvetica Neue', Helvetica, Arial-Unicode, Arial, Sans-serif">Created by Carlos C</text><text x="0" y="120" fill="#000000" font-size="5px" font-weight="bold" font-family="'Helvetica Neue', Helvetica, Arial-Unicode, Arial, Sans-serif">from the Noun Project</text></svg>